<?xml version="1.0" standalone="no"?>
<!DOCTYPE svg PUBLIC "-//W3C//DTD SVG 20010904//EN"
 "http://www.w3.org/TR/2001/REC-SVG-20010904/DTD/svg10.dtd">
<svg version="1.0" xmlns="http://www.w3.org/2000/svg"
 width="182.000000pt" height="153.000000pt" viewBox="0 0 182.000000 153.000000"
 preserveAspectRatio="xMidYMid meet">

<g transform="translate(0.000000,153.000000) scale(0.100000,-0.100000)"
fill="#000000" stroke="none">
<path d="M0 765 l0 -765 910 0 910 0 0 765 0 765 -910 0 -910 0 0 -765z m1247
437 c18 -14 133 -193 133 -207 0 -3 14 -27 30 -53 46 -75 43 -82 -40 -82 -41
0 -70 -4 -70 -10 0 -6 11 -27 24 -48 39 -63 41 -90 6 -157 -16 -33 -30 -61
-30 -62 0 -2 19 -3 43 -3 42 0 87 -21 87 -42 0 -17 -141 -259 -171 -292 l-27
-31 -158 -3 c-86 -2 -167 -1 -180 2 -34 9 -40 45 -14 89 12 20 19 41 15 47 -3
5 -33 10 -66 10 -75 0 -92 9 -125 65 -14 25 -30 45 -35 45 -5 0 -17 -17 -28
-38 -26 -52 -50 -71 -62 -52 -100 164 -179 310 -179 334 0 35 175 346 195 346
8 0 26 -22 41 -50 15 -27 31 -50 35 -50 5 0 18 18 29 40 29 56 71 80 143 80
31 0 57 2 57 5 0 3 -9 23 -20 45 -43 85 -33 90 175 90 146 0 173 -3 192 -18z"/>
<path d="M910 1170 c0 -6 11 -28 25 -50 l25 -40 83 0 c103 0 125 -13 181 -105
l42 -70 57 -3 c31 -2 57 1 57 5 0 5 -10 24 -23 43 -13 19 -43 71 -67 114 -66
122 -55 116 -230 116 -95 0 -150 -4 -150 -10z"/>
<path d="M806 1031 c-3 -4 9 -32 27 -62 18 -30 55 -93 82 -141 l49 -88 168 0
c128 0 168 3 167 13 0 6 -13 32 -28 57 l-27 45 -96 5 c-112 6 -117 9 -178 111
l-41 69 -59 0 c-32 0 -61 -4 -64 -9z"/>
<path d="M995 1030 c-4 -6 11 -36 32 -68 l38 -57 73 -3 c39 -2 72 0 72 4 0 17
-64 115 -80 124 -24 13 -127 13 -135 0z"/>
<path d="M721 951 l-23 -48 46 -80 c25 -44 46 -91 46 -104 0 -13 -14 -49 -30
-79 -69 -128 -66 -113 -36 -164 15 -25 30 -46 34 -46 4 0 44 65 90 144 l82
143 -32 55 c-18 31 -55 94 -83 142 -27 47 -55 86 -61 86 -6 0 -21 -22 -33 -49z"/>
<path d="M570 954 c-98 -166 -131 -230 -127 -245 9 -34 142 -259 153 -259 6 0
19 18 29 39 l17 39 -46 85 c-25 46 -46 94 -46 106 0 12 20 58 45 101 48 85 50
104 16 149 l-18 23 -23 -38z"/>
<path d="M636 808 c-48 -83 -49 -90 -12 -160 19 -34 38 -64 44 -66 18 -6 84
124 76 150 -10 32 -64 118 -74 118 -5 0 -20 -19 -34 -42z"/>
<path d="M972 691 c-9 -6 -92 -137 -92 -146 0 -3 -18 -34 -40 -70 -22 -37 -39
-69 -36 -73 3 -5 98 -7 126 -3 3 1 25 35 50 77 54 92 76 104 188 104 l79 0 27
51 c16 28 26 52 24 55 -7 6 -316 11 -326 5z"/>
<path d="M1064 522 c-17 -10 -75 -112 -70 -121 5 -8 107 -5 136 4 16 5 51 58
78 118 5 9 -129 9 -144 -1z"/>
<path d="M1231 468 c-56 -102 -65 -108 -168 -108 -48 0 -93 -4 -99 -8 -14 -10
-54 -77 -54 -91 0 -8 43 -11 143 -11 163 0 171 3 213 78 15 26 47 80 71 120
23 40 43 75 43 77 0 3 -26 5 -57 5 l-58 0 -34 -62z"/>
</g>
</svg>
